<svg xmlns="http://www.w3.org/2000/svg" xmlns:xlink="http://www.w3.org/1999/xlink" width="500" zoomAndPan="magnify" viewBox="0 0 375 374.999991" height="500" preserveAspectRatio="xMidYMid meet" version="1.0"><defs><clipPath id="5348c9c5a7"><path d="M 70.613281 61.109375 L 207.839844 61.109375 L 207.839844 313.832031 L 70.613281 313.832031 Z M 70.613281 61.109375 " clip-rule="nonzero"/></clipPath><clipPath id="9f583a4fcc"><path d="M 112.4375 82 L 304.386719 82 L 304.386719 293 L 112.4375 293 Z M 112.4375 82 " clip-rule="nonzero"/></clipPath></defs><g clip-path="url(#5348c9c5a7)"><path fill="#ffffff" d="M 91.609375 187.5 C 91.609375 121.226562 142.621094 66.871094 207.523438 61.542969 C 204.054688 61.257812 200.546875 61.109375 197.003906 61.109375 C 127.203125 61.109375 70.613281 117.695312 70.613281 187.5 C 70.613281 257.304688 127.203125 313.890625 197.003906 313.890625 C 200.546875 313.890625 204.054688 313.742188 207.523438 313.457031 C 142.621094 308.128906 91.609375 253.777344 91.609375 187.5 " fill-opacity="1" fill-rule="nonzero"/></g><g clip-path="url(#9f583a4fcc)"><path fill="#ffffff" d="M 276.957031 247.886719 C 261.746094 262.742188 240.941406 271.902344 218 271.902344 C 171.386719 271.902344 133.601562 234.113281 133.601562 187.5 C 133.601562 140.886719 171.386719 103.097656 218 103.097656 C 240.941406 103.097656 261.746094 112.257812 276.957031 127.113281 L 304.386719 127.113281 C 285.328125 99.902344 253.746094 82.105469 218 82.105469 C 159.792969 82.105469 112.605469 129.292969 112.605469 187.5 C 112.605469 245.707031 159.792969 292.898438 218 292.898438 C 253.746094 292.898438 285.328125 275.097656 304.386719 247.886719 L 276.957031 247.886719 " fill-opacity="1" fill-rule="nonzero"/></g><path fill="#ffffff" d="M 176.355469 195.007812 C 175.933594 192.609375 175.714844 190.140625 175.714844 187.621094 C 175.714844 185.101562 175.933594 182.636719 176.355469 180.234375 C 179.605469 152.269531 201.085938 129.871094 228.601562 125.230469 C 225.15625 124.648438 221.613281 124.339844 218 124.339844 C 183.050781 124.339844 154.71875 152.671875 154.71875 187.621094 C 154.71875 222.574219 183.050781 250.90625 218 250.90625 C 221.613281 250.90625 225.15625 250.597656 228.601562 250.015625 C 201.085938 245.375 179.605469 222.972656 176.355469 195.007812 " fill-opacity="1" fill-rule="nonzero"/></svg>