<svg xmlns="http://www.w3.org/2000/svg" xmlns:xlink="http://www.w3.org/1999/xlink" zoomAndPan="magnify" preserveAspectRatio="xMidYMid meet" version="1.0" viewBox="30.36 122.77 299.88 129.46"><defs><g/><clipPath id="29e2c46035"><path d="M 30.359375 122.769531 L 100.636719 122.769531 L 100.636719 252.230469 L 30.359375 252.230469 Z M 30.359375 122.769531 " clip-rule="nonzero"/></clipPath><clipPath id="263a83c3c0"><path d="M 51.777344 133.390625 L 150.082031 133.390625 L 150.082031 241.550781 L 51.777344 241.550781 Z M 51.777344 133.390625 " clip-rule="nonzero"/></clipPath></defs><g fill="#193050" fill-opacity="1"><g transform="translate(95.419971, 204.25011)"><g><path d="M 11.84375 -0.5 C 8.882812 -2.101562 6.601562 -4.367188 5 -7.296875 C 4.226562 -8.734375 3.648438 -10.300781 3.265625 -12 C 2.890625 -13.695312 2.703125 -15.5 2.703125 -17.40625 C 2.703125 -21.238281 3.484375 -24.601562 5.046875 -27.5 C 6.648438 -30.46875 8.953125 -32.734375 11.953125 -34.296875 C 13.453125 -35.097656 15.09375 -35.691406 16.875 -36.078125 C 18.65625 -36.460938 20.5625 -36.65625 22.59375 -36.65625 C 24.300781 -36.65625 25.988281 -36.488281 27.65625 -36.15625 C 29.351562 -35.820312 30.882812 -35.300781 32.25 -34.59375 L 32.953125 -34.25 L 32.953125 -26.15625 L 31.15625 -26.15625 L 30.84375 -26.296875 C 29.71875 -26.992188 28.46875 -27.507812 27.09375 -27.84375 C 25.695312 -28.175781 24.382812 -28.34375 23.15625 -28.34375 C 21.382812 -28.34375 19.832031 -28.109375 18.5 -27.640625 C 17.164062 -27.179688 16.015625 -26.484375 15.046875 -25.546875 C 13.117188 -23.679688 12.15625 -20.96875 12.15625 -17.40625 C 12.15625 -15.601562 12.394531 -14.023438 12.875 -12.671875 C 13.351562 -11.328125 14.0625 -10.203125 15 -9.296875 C 16.863281 -7.429688 19.476562 -6.5 22.84375 -6.5 C 24.144531 -6.5 25.476562 -6.695312 26.84375 -7.09375 C 27.550781 -7.332031 28.238281 -7.597656 28.90625 -7.890625 C 29.570312 -8.191406 30.21875 -8.53125 30.84375 -8.90625 L 31.15625 -9.09375 L 32.953125 -9.09375 L 32.953125 -1 L 32.296875 -0.59375 C 29.460938 1.03125 26.128906 1.84375 22.296875 1.84375 C 18.265625 1.84375 14.78125 1.0625 11.84375 -0.5 Z M 11.84375 -0.5 "/></g></g></g><g fill="#193050" fill-opacity="1"><g transform="translate(137.364399, 204.25011)"><g><path d="M 11.203125 -0.5 C 8.398438 -2.101562 6.28125 -4.367188 4.84375 -7.296875 C 3.414062 -10.160156 2.703125 -13.523438 2.703125 -17.390625 C 2.703125 -21.265625 3.414062 -24.632812 4.84375 -27.5 C 6.28125 -30.4375 8.398438 -32.703125 11.203125 -34.296875 C 12.566406 -35.066406 14.070312 -35.648438 15.71875 -36.046875 C 17.375 -36.453125 19.132812 -36.65625 21 -36.65625 C 24.800781 -36.65625 28.066406 -35.867188 30.796875 -34.296875 C 32.203125 -33.492188 33.4375 -32.523438 34.5 -31.390625 C 35.5625 -30.265625 36.445312 -28.96875 37.15625 -27.5 C 37.882812 -26.0625 38.421875 -24.5 38.765625 -22.8125 C 39.117188 -21.132812 39.296875 -19.332031 39.296875 -17.40625 C 39.296875 -13.53125 38.582031 -10.160156 37.15625 -7.296875 C 35.71875 -4.367188 33.597656 -2.101562 30.796875 -0.5 C 28.066406 1.0625 24.800781 1.84375 21 1.84375 C 17.195312 1.84375 13.929688 1.0625 11.203125 -0.5 Z M 24.6875 -7.390625 C 25.757812 -7.828125 26.6875 -8.492188 27.46875 -9.390625 C 28.257812 -10.296875 28.851562 -11.40625 29.25 -12.71875 C 29.644531 -14.039062 29.84375 -15.601562 29.84375 -17.40625 C 29.84375 -20.9375 29.046875 -23.601562 27.453125 -25.40625 C 26.679688 -26.300781 25.757812 -26.960938 24.6875 -27.390625 C 23.625 -27.828125 22.394531 -28.046875 21 -28.046875 C 18.226562 -28.046875 16.078125 -27.164062 14.546875 -25.40625 C 12.953125 -23.601562 12.15625 -20.9375 12.15625 -17.40625 C 12.15625 -15.601562 12.351562 -14.039062 12.75 -12.71875 C 13.144531 -11.40625 13.742188 -10.300781 14.546875 -9.40625 C 16.078125 -7.632812 18.226562 -6.75 21 -6.75 C 22.394531 -6.75 23.625 -6.960938 24.6875 -7.390625 Z M 24.6875 -7.390625 "/></g></g></g><g fill="#193050" fill-opacity="1"><g transform="translate(185.307899, 204.25011)"><g><path d="M 5.15625 -36.046875 L 13 -36.046875 L 13 -7.046875 L 27.65625 -7.046875 L 27.65625 1.25 L 3.90625 1.25 L 3.90625 -36.046875 Z M 5.15625 -36.046875 "/></g></g></g><g fill="#193050" fill-opacity="1"><g transform="translate(220.253421, 204.25011)"><g><path d="M 5.15625 -36.046875 L 13 -36.046875 L 13 -7.046875 L 27.65625 -7.046875 L 27.65625 1.25 L 3.90625 1.25 L 3.90625 -36.046875 Z M 5.15625 -36.046875 "/></g></g></g><g fill="#193050" fill-opacity="1"><g transform="translate(255.198937, 204.25011)"><g><path d="M 33.59375 -34.203125 L 21.09375 -11.703125 L 21.09375 1.25 L 12 1.25 L 12 -11.703125 L -0.5 -34.203125 L -1.5 -36.046875 L 8.390625 -36.046875 L 8.75 -35.40625 L 16.59375 -20.546875 L 24.59375 -35.40625 L 24.953125 -36.046875 L 34.59375 -36.046875 Z M 33.59375 -34.203125 "/></g></g></g><g fill="#193050" fill-opacity="1"><g transform="translate(294.143843, 204.25011)"><g><path d="M 36.09375 -34.796875 L 36.09375 1.25 L 27.59375 1.25 L 27.25 0.75 L 13 -19.09375 L 13 1.25 L 3.90625 1.25 L 3.90625 -36.046875 L 12.40625 -36.046875 L 12.75 -35.546875 L 27 -15.75 L 27 -36.046875 L 36.09375 -36.046875 Z M 36.09375 -34.796875 "/></g></g></g><g clip-path="url(#29e2c46035)"><path fill="#193050" d="M 41.109375 187.5 C 41.109375 153.558594 67.234375 125.722656 100.472656 122.992188 C 98.699219 122.847656 96.902344 122.769531 95.085938 122.769531 C 59.339844 122.769531 30.359375 151.75 30.359375 187.5 C 30.359375 223.25 59.339844 252.230469 95.085938 252.230469 C 96.902344 252.230469 98.699219 252.152344 100.472656 252.007812 C 67.234375 249.277344 41.109375 221.441406 41.109375 187.5 " fill-opacity="1" fill-rule="nonzero"/></g><g clip-path="url(#263a83c3c0)"><path fill="#193050" d="M 136.035156 218.425781 C 128.242188 226.035156 117.589844 230.726562 105.839844 230.726562 C 81.96875 230.726562 62.617188 211.371094 62.617188 187.5 C 62.617188 163.628906 81.96875 144.277344 105.839844 144.277344 C 117.589844 144.277344 128.242188 148.96875 136.035156 156.574219 L 150.078125 156.574219 C 140.320312 142.636719 124.144531 133.523438 105.839844 133.523438 C 76.027344 133.523438 51.863281 157.691406 51.863281 187.5 C 51.863281 217.308594 76.027344 241.476562 105.839844 241.476562 C 124.144531 241.476562 140.320312 232.363281 150.078125 218.425781 L 136.035156 218.425781 " fill-opacity="1" fill-rule="nonzero"/></g><path fill="#193050" d="M 84.511719 191.347656 C 84.296875 190.117188 84.183594 188.851562 84.183594 187.5625 C 84.183594 186.273438 84.296875 185.007812 84.511719 183.78125 C 86.175781 169.457031 97.179688 157.988281 111.269531 155.609375 C 109.503906 155.3125 107.691406 155.152344 105.839844 155.152344 C 87.941406 155.152344 73.429688 169.664062 73.429688 187.5625 C 73.429688 205.460938 87.941406 219.972656 105.839844 219.972656 C 107.691406 219.972656 109.503906 219.8125 111.269531 219.515625 C 97.179688 217.140625 86.175781 205.667969 84.511719 191.347656 " fill-opacity="1" fill-rule="nonzero"/></svg>